<?xml version="1.0" standalone="no"?>
<!DOCTYPE svg PUBLIC "-//W3C//DTD SVG 1.1//EN" "http://www.w3.org/Graphics/SVG/1.1/DTD/svg11.dtd" >
<svg xmlns="http://www.w3.org/2000/svg">
<metadata>Generated by IcoMoon</metadata>
<defs>
<font id="icomoon" horiz-adv-x="1024">
<font-face units-per-em="1024" ascent="960" descent="-64" />
<missing-glyph horiz-adv-x="1024" />
<glyph unicode="&#x20;" horiz-adv-x="512" d="" />
<glyph unicode="&#xe900;" glyph-name="add" d="M600.667 894.738c-330.684 62.382-613.618-233.28-528.462-566.64 35.716-139.822 180.071-284.178 319.893-319.893 333.333-85.156 629.022 197.778 566.64 528.453-31.351 166.169-191.911 326.729-358.071 358.080zM801.022 414.836h-256.96v-257.022c0-6.222-4.098-14.436-9.12-18.16-26.249-19.422-54.88-1.12-54.88 23.867v251.316h-257.084c-6.222 0-14.444 4.098-18.16 9.12-19.422 26.249-1.12 54.88 23.867 54.88h251.378v257.022c0 6.222 4.089 14.444 9.12 18.16 26.24 19.422 54.88 1.12 54.88-23.858v-251.324h251.253c24.987 0 43.289-28.631 23.867-54.88-3.716-5.022-11.902-9.12-18.16-9.12z" />
<glyph unicode="&#xe901;" glyph-name="allow" d="M511.778 223.947c-10.826 0.001-20.625 4.401-27.705 11.51l-368.375 369.877c-6.83 7.033-11.041 16.643-11.041 27.235 0 21.6 17.511 39.111 39.111 39.111 10.65 0 20.306-4.257 27.359-11.162l-0.007 0.007 340.542-341.92 337.484 341.84c7.095 7.183 16.943 11.632 27.831 11.632 21.601 0 39.112-17.511 39.112-39.112 0-10.713-4.307-20.42-11.284-27.484l0.004 0.004-365.2-369.929c-7.075-7.161-16.888-11.603-27.738-11.627h-0.005z" />
<glyph unicode="&#xe902;" glyph-name="channel-list" d="M682.551 447.111h-366.107c-17.673 0-32-14.327-32-32s14.327-32 32-32v0h366.107c17.673 0 32 14.327 32 32s-14.327 32-32 32v0zM512.053 304h-195.609c-17.673 0-32-14.327-32-32s14.327-32 32-32v0h195.609c17.673 0 32 14.327 32 32s-14.327 32-32 32v0zM847.698 589.547l-276.613 275.111c-3.453 3.438-8.216 5.564-13.476 5.564h-298.053c-49.092 0-88.889-39.797-88.889-88.889v0-675.556c0-49.092 39.797-88.889 88.889-88.889v0h504.889c49.092 0 88.889 39.797 88.889 88.889v0 470.222c-0.001 5.295-2.156 10.086-5.635 13.546l-0.001 0.001zM752.16 592.889h-176.16v176.16zM764.444 80.889h-504.889c-13.746 0-24.889 11.143-24.889 24.889v0 675.556c0 13.746 11.143 24.889 24.889 24.889v0h252.444v-232.889c0-24.546 19.898-44.444 44.444-44.444v0h232.889v-423.111c0-13.746-11.143-24.889-24.889-24.889v0z" />
<glyph unicode="&#xe903;" glyph-name="channel" d="M804.64 672c-5.836 6.084-14.032 9.864-23.111 9.864-17.677 0-32.006-14.33-32.006-32.006 0-8.597 3.39-16.403 8.906-22.153l-0.011 0.011c58.092-60.567 93.86-142.937 93.86-233.662 0-186.55-151.228-337.778-337.778-337.778s-337.778 151.228-337.778 337.778c0 186.55 151.228 337.778 337.778 337.778 0.002 0 0.005 0 0.007 0v0q12.32 0 24.587-0.889l-72.222-72.276c-5.79-5.791-9.372-13.79-9.372-22.627s3.581-16.836 9.372-22.627v0c5.791-5.79 13.79-9.372 22.627-9.372s16.836 3.581 22.627 9.372l112.116 112.116 0.658 0.453c2.030 1.311 3.797 2.741 5.396 4.338v0c5.787 6.026 9.351 14.226 9.351 23.258s-3.564 17.231-9.361 23.269l0.011-0.011c-1.746 1.736-3.688 3.277-5.791 4.586l-0.138 0.080-112.24 112.24c-5.791 5.79-13.79 9.372-22.627 9.372s-16.836-3.581-22.627-9.372v0c-5.793-5.791-9.376-13.793-9.376-22.631s3.583-16.84 9.376-22.631l52.729-52.729c-1.698 0-3.387 0.044-5.084 0.044-221.88-0.020-401.742-179.895-401.742-401.778 0-221.896 179.882-401.778 401.778-401.778s401.778 179.882 401.778 401.778c0 107.938-42.563 205.934-111.822 278.121l0.132-0.139zM510.827 168.96v0c17.673 0 32 14.327 32 32v0 6.853c25.858 3.431 47.52 12.329 64.587 26.569 20.542 17.084 30.951 41.458 30.951 72.436 0 25.369-8.276 45.049-24.604 58.48-11.947 9.947-30.773 18.142-56 24.364l-74.080 18.169c-9.644 2.196-16.596 4.818-20.676 7.804-7.031 5.129-10.453 12.516-10.453 22.587 0 12.276 5.458 21.333 16.658 27.556 9.076 4.933 20.827 7.44 34.916 7.44 23.742 0 40.773-5.769 50.667-17.156 2.364-2.731 4.347-5.881 5.813-9.304l0.089-0.234c5.078-11.003 16.016-18.501 28.706-18.501 17.408 0 31.52 14.112 31.52 31.52 0 5.761-1.545 11.161-4.244 15.808l0.081-0.151c-3.905 6.729-8.205 12.551-13.063 17.853l0.068-0.075c-15.111 16.631-35.502 27.449-60.916 32.356v8.418c0 17.673-14.327 32-32 32v0 0c-17.673 0-32-14.327-32-32v0-7.431c-29.013-4.276-51.378-15.191-66.667-32.613-14.267-16.222-21.493-36.444-21.493-60.036 0-30.222 10.302-52.587 30.622-66.587 11.92-8.222 34.427-16.249 66.898-23.858l32.578-7.6c19.556-4.756 32.827-8.978 39.44-12.551 9.778-5.431 14.551-13.2 14.551-23.76 0-14.222-6.391-24.196-19.556-30.489-10.489-4.96-24.827-7.476-42.596-7.476-24.044 0-41.653 5.973-52.338 17.778-1.876 2.098-3.822 4.622-5.707 7.111-1.387 1.778-2.667 3.493-3.982 5.049l-1.956 2.347c-9.778 11.822-13.084 15.796-25.289 16.889h-0.080c-11.964 0.311-21.636-4.133-27.244-12.524-5.867-8.782-6.471-20.56-1.6-31.511 4.043-8.969 9.142-16.678 15.274-23.433l-0.065 0.073c15.751-17.6 38.951-28.951 69.2-33.929v-8.133c0-0.032 0-0.069 0-0.107 0-17.67 14.322-31.995 31.991-32v0z" />
<glyph unicode="&#xe904;" glyph-name="comment" d="M822.080 373.156c-17.673 0-32-14.327-32-32v0-197.156c0-16.691-13.531-30.222-30.222-30.222v0h-551.156c-16.691 0-30.222 13.531-30.222 30.222v0 551.111c0 16.691 13.531 30.222 30.222 30.222v0h199.813c17.673 0 32 14.327 32 32s-14.327 32-32 32v0h-199.813c-52.013-0.061-94.162-42.209-94.222-94.216v-551.117c0.061-52.013 42.209-94.162 94.216-94.222h551.161c52.013 0.061 94.162 42.209 94.222 94.216v197.162c0 17.673-14.327 32-32 32v0zM876.382 688.444l-122.382 122.382c-6.113 6.113-14.557 9.893-23.884 9.893s-17.772-3.781-23.884-9.893l-338.462-338.453c-6.111-6.077-9.893-14.491-9.893-23.789 0-0.034 0-0.067 0-0.101v0.005-121.191c0.059-18.522 14.97-33.543 33.444-33.778l122.76-1.129c9.327 0.018 17.769 3.794 23.894 9.894l338.408 338.39c6.113 6.113 9.893 14.557 9.893 23.884s-3.781 17.772-9.893 23.884v0z" />
<glyph unicode="&#xe905;" glyph-name="copy" d="M817.253 690.276h-63.378v62.978c-0.061 52.013-42.209 94.162-94.216 94.222h-452.912c-52.013-0.061-94.162-42.209-94.222-94.216v-452.913c0.061-52.013 42.209-94.162 94.216-94.222h62.984v-63.378c0.061-52.013 42.209-94.162 94.216-94.222h453.339c52.013 0.061 94.162 42.209 94.222 94.216v453.339c-0.076 52.011-42.234 94.15-94.245 94.196h-0.004zM269.698 596.053v-325.929h-62.951c-16.691 0-30.222 13.531-30.222 30.222v0 452.907c0 16.691 13.531 30.222 30.222 30.222v0h452.907c16.691 0 30.222-13.531 30.222-30.222v0-62.978h-325.929c-52.013-0.061-94.162-42.209-94.222-94.216v-0.006zM847.476 142.72c0-16.691-13.531-30.222-30.222-30.222v0h-453.333c-16.691 0-30.222 13.531-30.222 30.222v0 453.333c0 16.691 13.531 30.222 30.222 30.222v0h453.333c16.691 0 30.222-13.531 30.222-30.222v0zM738.533 401.404h-115.902v115.929c0 17.673-14.327 32-32 32s-32-14.327-32-32v0-115.929h-115.964c-17.673 0-32-14.327-32-32s14.327-32 32-32v0h115.964v-115.938c0-17.673 14.327-32 32-32s32 14.327 32 32v0 115.938h115.902c17.673 0 32 14.327 32 32s-14.327 32-32 32v0z" />
<glyph unicode="&#xe906;" glyph-name="download" d="M489.982 297.964c5.795-5.82 13.815-9.422 22.675-9.422h0.071c8.884 0.021 16.914 3.658 22.699 9.517l0.003 0.003 151.324 153.271c5.705 5.777 9.229 13.719 9.229 22.484 0 17.675-14.328 32.003-32.003 32.003-8.909 0-16.968-3.64-22.77-9.515l-0.003-0.003-97.209-98.462v473.271c0 17.673-14.327 32-32 32s-32-14.327-32-32v0-472.427l-97.307 97.716c-5.757 5.6-13.627 9.053-22.303 9.053-17.673 0-32-14.327-32-32 0-8.634 3.42-16.47 8.979-22.227l-0.009 0.009zM830.222 376.729c-17.673 0-32-14.327-32-32v0-145.351c-0.020-17.834-14.469-32.286-32.3-32.311h-507.629c-17.833 0.025-32.282 14.477-32.302 32.309v145.353c0 17.673-14.327 32-32 32s-32-14.327-32-32v0-145.351c0.061-53.164 43.139-96.245 96.296-96.311h507.633c53.163 0.066 96.242 43.147 96.302 96.305v145.357c0 17.673-14.327 32-32 32v0z" />
<glyph unicode="&#xe907;" glyph-name="eye" d="M512 106.667c-96 0-189.058 32-269.093 92.56-77.102 58.338-138.533 140.204-177.644 236.756l-4.871 12.018 4.871 12.018c39.111 96.551 100.542 178.418 177.644 236.756 80.036 60.56 173.093 92.56 269.093 92.56s189.058-32 269.093-92.56c77.102-58.338 138.533-140.204 177.644-236.756l4.871-12.018-4.871-12.018c-39.111-96.551-100.542-178.418-177.644-236.756-80.036-60.56-173.093-92.56-269.093-92.56zM129.609 448c34.88-80.604 87.209-148.782 151.911-197.733 68.836-52.044 148.533-79.6 230.48-79.6s161.644 27.556 230.48 79.6c64.702 48.951 117.076 117.129 151.911 197.733-34.836 80.604-87.209 148.782-151.911 197.733-68.836 52.044-148.533 79.6-230.48 79.6s-161.644-27.556-230.48-79.6c-64.702-48.951-117.031-117.129-151.911-197.733zM512 303.529c-79.662 0-144.471 64.809-144.471 144.471s64.809 144.471 144.471 144.471 144.471-64.809 144.471-144.471-64.809-144.471-144.471-144.471zM512 528.471c-44.443 0-80.471-36.028-80.471-80.471s36.028-80.471 80.471-80.471c44.443 0 80.471 36.028 80.471 80.471v0c-0.051 44.423-36.048 80.421-80.466 80.471h-0.005z" />
<glyph unicode="&#xe908;" glyph-name="inform" d="M882.222 299.111v0c-39.617 0-71.733 32.116-71.733 71.733v0 178.871c0 164.889-133.671 298.569-298.569 298.569v0c-164.898 0-298.587-133.68-298.587-298.569v-179.049c-0.005-39.517-32.039-71.551-71.555-71.556v0c-15.464 0-28-12.536-28-28s12.536-28 28-28v0h740.444c15.464 0 28 12.536 28 28s-12.536 28-28 28v0zM261.538 307.111q2.782 5.253 5.129 10.782c6.744 15.509 10.667 33.576 10.667 52.558 0 0.076 0 0.151 0 0.227v-0.012 179.049c-0.003 0.429-0.004 0.936-0.004 1.444 0 129.554 105.024 234.578 234.578 234.578s234.578-105.024 234.578-234.578c0-0.508-0.002-1.015-0.005-1.522v0.078-178.871c0-0.078 0-0.17 0-0.262 0-18.994 3.923-37.071 11.003-53.466l-0.336 0.875q2.356-5.573 5.182-10.88zM584.213 184.942c-17.673 0-32-14.327-32-32v0c0-22.253-18.040-40.293-40.293-40.293s-40.293 18.040-40.293 40.293v0c0 17.673-14.327 32-32 32s-32-14.327-32-32v0c0-57.6 46.694-104.293 104.293-104.293s104.293 46.694 104.293 104.293v0c0 17.673-14.327 32-32 32v0z" />
<glyph unicode="&#xe909;" glyph-name="log-out" d="M512-6.222c-0.001 0-0.001 0-0.002 0-221.896 0-401.778 179.882-401.778 401.778 0 107.925 42.553 205.911 111.797 278.095l-0.133-0.14c5.836 6.084 14.032 9.864 23.111 9.864 17.677 0 32.006-14.33 32.006-32.006 0-8.597-3.39-16.403-8.906-22.153l0.011 0.011c-58.096-60.567-93.867-142.941-93.867-233.669 0-186.55 151.228-337.778 337.778-337.778s337.778 151.228 337.778 337.778c0 90.728-35.771 173.102-93.979 233.787l0.112-0.118c-5.504 5.738-8.892 13.542-8.892 22.138 0 17.675 14.328 32.003 32.003 32.003 9.079 0 17.276-3.781 23.1-9.854l0.011-0.011c69.191-72.045 111.799-170.074 111.799-278.053 0-221.837-179.834-401.671-401.671-401.671-0.098 0-0.196 0-0.294 0h0.016zM512 417.236c-17.673 0-32 14.327-32 32v0 415.111c0 17.673 14.327 32 32 32s32-14.327 32-32v0-415.111c0-17.673-14.327-32-32-32v0z" />
<glyph unicode="&#xe90a;" glyph-name="no-eye" d="M873.147 54.853c-0.012 0-0.025 0-0.039 0-8.826 0-16.816 3.584-22.591 9.377l-725.334 725.334c-5.792 5.792-9.374 13.793-9.374 22.631 0 17.676 14.329 32.005 32.005 32.005 8.838 0 16.839-3.582 22.631-9.374l725.333-725.333c5.793-5.791 9.376-13.793 9.376-22.631 0-17.673-14.326-31.999-31.998-32v0zM512 106.667c-96 0-189.058 32-269.093 92.56-77.102 58.338-138.533 140.204-177.644 236.756l-4.871 12.018 4.871 12.018c21.951 53.869 49.166 100.372 81.952 142.308l-0.975-1.294c32.987 42.276 71.049 78.498 113.129 107.671l36.444-52.604c-36.773-25.484-70.124-57.262-99.129-94.436-25.735-32.87-48.198-70.277-65.767-110.319l-1.308-3.344c34.88-80.604 87.209-148.782 151.911-197.733 68.836-52.044 148.533-79.6 230.48-79.6 74.756 0 148.382 23.164 212.916 67.004l35.973-52.942c-75.2-51.067-161.262-78.062-248.889-78.062zM853.511 283.947c-17.666 0.010-31.983 14.333-31.983 32 0 7.421 2.526 14.252 6.765 19.68l-0.053-0.071c25.32 32.523 47.47 69.525 64.842 109.1l1.309 3.344c-34.836 80.604-87.209 148.782-151.911 197.733-68.836 52.044-148.533 79.6-230.48 79.6-36.874-0.002-72.475-5.446-106.046-15.571l2.597 0.673c-2.701-0.824-5.806-1.298-9.022-1.298-17.673 0-32 14.327-32 32 0 14.458 9.588 26.676 22.752 30.644l0.227 0.059c36.377 11.1 78.189 17.492 121.493 17.493h0.001c96 0 189.058-32 269.093-92.56 77.102-58.338 138.533-140.204 177.644-236.756 1.477-3.551 2.335-7.675 2.335-12s-0.858-8.449-2.413-12.213l0.078 0.213c-21.74-53.338-48.592-99.383-80.905-140.975l0.994 1.33c-5.909-7.59-15.048-12.427-25.316-12.427v0zM512 303.529c-79.662 0-144.471 64.809-144.471 144.471 0 0.114-0.001 0.248-0.001 0.383 0 39.775 16.175 75.771 42.306 101.771l0.006 0.006 45.271-45.271c-13.849-14.431-22.376-34.061-22.376-55.683 0-44.443 36.028-80.471 80.471-80.471 21.622 0 41.252 8.527 55.711 22.403l-0.028-0.026 45.253-45.262c-26.007-26.142-62.007-42.32-101.786-42.32-0.125 0-0.25 0-0.375 0h0.019z" />
<glyph unicode="&#xe90b;" glyph-name="profile" d="M512 448c109.964 0 199.111 89.147 199.111 199.111s-89.147 199.111-199.111 199.111-199.111-89.147-199.111-199.111 89.147-199.111 199.111-199.111zM416.462 742.649c24.45 24.45 58.228 39.573 95.538 39.573 74.62 0 135.111-60.491 135.111-135.111s-60.491-135.111-135.111-135.111c-74.62 0-135.111 60.491-135.111 135.111 0 0 0 0 0 0v0c0 0.109-0.001 0.239-0.001 0.368 0 37.194 15.129 70.855 39.568 95.164l0.006 0.006zM835.964 232.267c-84.853 62.498-198.764 100.738-323.964 100.738s-239.111-38.222-323.964-100.738c-46.898-34.533-74.258-89.582-74.258-147.822v0c0-19.637 15.919-35.556 35.556-35.556v0h725.333c19.637 0 35.556 15.919 35.556 35.556v0 0c0 58.24-27.36 113.289-74.258 147.822zM181.173 112.889c6.852 27.927 22.817 51.381 44.499 67.618l0.31 0.222c77.333 56.889 178.88 88.276 286.018 88.276s208.711-31.351 286.018-88.276c21.992-16.459 37.957-39.913 44.638-67.022l0.17-0.818z" />
<glyph unicode="&#xe90c;" glyph-name="search" d="M900.853 104.391l-134.133 134.133c-0.293 0.293-0.587 0.569-0.889 0.844 54.080 63.97 86.955 147.384 86.955 238.475 0 204.615-165.874 370.489-370.489 370.489s-370.489-165.874-370.489-370.489c0-204.615 165.874-370.489 370.489-370.489 91.015 0 174.364 32.819 238.859 87.268l-0.552-0.454c0.284-0.302 0.569-0.604 0.889-0.889l134.133-134.133c5.791-5.79 13.79-9.372 22.627-9.372s16.836 3.581 22.627 9.372v0c5.78 5.789 9.354 13.782 9.354 22.609 0 8.841-3.585 16.844-9.381 22.635v0zM483.173 171.716c-0.002 0-0.004 0-0.007 0-168.601 0-305.28 136.679-305.28 305.28s136.679 305.28 305.28 305.28c168.601 0 305.28-136.679 305.28-305.28 0-84.301-34.17-160.621-89.415-215.866v0c-54.939-55.232-130.994-89.414-215.032-89.414-0.29 0-0.581 0-0.871 0.001h0.045z" />
<glyph unicode="&#xe90d;" glyph-name="sign" d="M512 903.111c-251.351 0-455.111-203.76-455.111-455.111s203.76-455.111 455.111-455.111 455.111 203.76 455.111 455.111-203.76 455.111-455.111 455.111zM419.973 234.613l-112.773-40.782c-0.695-0.228-1.494-0.36-2.324-0.36-4.246 0-7.689 3.442-7.689 7.689 0 0.356 0.024 0.706 0.071 1.048l-0.004-0.040 20.587 118.151 0.187 0.222 102.142-85.698zM443.022 262.080l-102.142 85.707 210.133 250.436 102.142-85.716zM722.951 595.689l-46.942-55.947-102.133 85.707 46.942 55.947c14.222 16.889 38.222 20.142 53.644 7.2l46.267-38.818c15.431-12.951 16.427-37.164 2.222-54.089z" />
<glyph unicode="&#xe90e;" glyph-name="sort" d="M865.778 846.222h-707.44c-24.546 0-44.444-19.898-44.444-44.444v0-707.396c0-24.546 19.898-44.444 44.444-44.444v0h707.44c24.546 0 44.444 19.898 44.444 44.444v0 707.396c0 24.546-19.898 44.444-44.444 44.444v0zM454.338 195.013c0-0.002 0-0.005 0-0.008 0-17.673-14.327-32-32-32-8.781 0-16.736 3.537-22.518 9.264l0.003-0.003-154.604 153.067c-5.859 5.802-9.487 13.849-9.487 22.742 0 17.674 14.328 32.002 32.002 32.002 8.781 0 16.736-3.536 22.518-9.263l-0.003 0.003 100.089-99.076v429.938c0 17.673 14.327 32 32 32s32-14.327 32-32v0zM771.556 526.133c-5.802-5.86-13.848-9.488-22.742-9.488-8.779 0-16.732 3.535-22.514 9.259l0.003-0.003-100.116 99.076v-429.964c0-17.673-14.327-32-32-32s-32 14.327-32 32v0 506.667c0 0.008 0 0.017 0 0.026 0 17.673 14.327 32 32 32 8.781 0 16.736-3.537 22.518-9.264l-0.002 0.002 154.596-153.058c5.868-5.803 9.501-13.855 9.501-22.756 0-8.772-3.53-16.72-9.247-22.501l0.003 0.003z" />
<glyph unicode="&#xe90f;" glyph-name="star" d="M922.018 548.836c6.227 6.076 10.090 14.552 10.090 23.93 0 16.762-12.34 30.642-28.431 33.052l-0.184 0.023-249.031 36.187c-0.472 0.066-0.863 0.36-1.063 0.765l-0.004 0.008-111.369 225.644c-5.583 11.12-16.898 18.618-29.964 18.618s-24.381-7.498-29.877-18.425l-0.088-0.192-111.378-225.644c-0.204-0.413-0.595-0.707-1.059-0.772l-0.007-0.001-249.031-36.187c-16.275-2.427-28.617-16.306-28.617-33.067 0-9.382 3.867-17.861 10.094-23.93l0.007-0.007 180.196-175.653c0.266-0.254 0.431-0.612 0.431-1.008 0-0.087-0.008-0.171-0.023-0.254l0.001 0.009-42.542-248c-0.314-1.72-0.494-3.7-0.494-5.721 0-18.434 14.944-33.378 33.378-33.378 5.709 0 11.084 1.433 15.783 3.96l-0.178-0.087 222.747 117.076c0.19 0.105 0.417 0.167 0.658 0.167s0.468-0.062 0.665-0.171l-0.007 0.004 222.738-117.102c4.507-2.416 9.861-3.836 15.546-3.836 18.459 0 33.422 14.964 33.422 33.422 0 1.993-0.174 3.944-0.509 5.841l0.029-0.201-42.542 248c-0.011 0.068-0.018 0.147-0.018 0.226 0 0.401 0.163 0.764 0.427 1.027v0z" />
<glyph unicode="&#xe910;" glyph-name="success" d="M958.791 536.658c-31.342 166.169-191.902 326.729-358.071 358.080-330.676 62.382-613.609-233.28-528.462-566.64 35.724-139.822 180.071-284.178 319.902-319.893 333.36-85.156 629.022 197.778 566.631 528.453zM763.973 583.84l-315.289-316.827c-5.796-5.822-13.817-9.425-22.68-9.425-8.81 0-16.788 3.56-22.575 9.32l-143.172 142.47c-6.168 5.845-10.005 14.096-10.005 23.243 0 17.673 14.327 32 32 32 9.1 0 17.314-3.799 23.14-9.897l0.012-0.012 120.489-119.867 292.72 294.142c5.733 5.477 13.518 8.848 22.090 8.848 17.673 0 32-14.327 32-32 0-8.526-3.335-16.274-8.771-22.009l0.014 0.014z" />
<glyph unicode="&#xe911;" glyph-name="tag" d="M817.689 846.178h-611.556c-19.636 0-35.556-16.489-35.556-36.836v-722.098c0-28.178 29.28-45.929 52.987-32.116l270.382 219.822c4.993 2.97 11.009 4.726 17.436 4.726s12.442-1.756 17.595-4.814l-0.159 0.088 271.44-220.444c23.698-13.822 52.987 3.929 52.987 32.107v722.667c0 20.409-15.911 36.898-35.556 36.898zM511.911 463.556c-54.782 0-99.191 44.569-99.191 99.556s44.444 99.556 99.191 99.556 99.182-44.569 99.182-99.556-44.409-99.556-99.182-99.556z" />
<glyph unicode="&#xe912;" glyph-name="transform" d="M163.671 725.191h696.773c27.492 0 49.778-22.286 49.778-49.778s-22.286-49.778-49.778-49.778h-696.773c-27.492 0-49.778 22.286-49.778 49.778s22.286 49.778 49.778 49.778zM163.671 497.778h696.773c27.492 0 49.778-22.286 49.778-49.778s-22.286-49.778-49.778-49.778h-696.773c-27.492 0-49.778 22.286-49.778 49.778s22.286 49.778 49.778 49.778zM163.671 270.338h696.773c27.492 0 49.778-22.286 49.778-49.778s-22.286-49.778-49.778-49.778h-696.773c-27.492 0-49.778 22.286-49.778 49.778s22.286 49.778 49.778 49.778z" />
<glyph unicode="&#xe913;" glyph-name="uncomment" d="M821.333 373.156c-17.673 0-32-14.327-32-32v0-197.156c0-16.691-13.531-30.222-30.222-30.222v0h-551.111c-16.691 0-30.222 13.531-30.222 30.222v0 551.111c0 16.691 13.531 30.222 30.222 30.222v0h199.751c17.673 0 32 14.327 32 32s-14.327 32-32 32v0h-199.813c-52.013-0.061-94.162-42.209-94.222-94.216v-551.117c0.061-52.013 42.209-94.162 94.216-94.222h551.179c52.013 0.061 94.162 42.209 94.222 94.216v197.162c0 17.673-14.327 32-32 32v0zM899.502 687.182l-147.502 147.484c-5.791 5.79-13.79 9.372-22.627 9.372s-16.836-3.581-22.627-9.372l-356.267-356.187c-5.789-5.791-9.369-13.789-9.369-22.624 0-0.003 0-0.005 0-0.008v0-146.169c0 0 0-0.001 0-0.001 0-17.57 14.16-31.833 31.691-31.999h0.016l147.849-1.36c8.834 0 16.832 3.581 22.622 9.369l356.24 356.24c5.782 5.789 9.359 13.784 9.359 22.613 0 8.843-3.587 16.848-9.385 22.64v0zM507.556 340.444l-102.4 0.942v101.209l324.196 324.231 102.267-102.267z" />
<glyph unicode="&#xe914;" glyph-name="unstar" d="M272.889 68.782c-27.28 0.091-49.36 22.227-49.36 49.52 0 2.936 0.256 5.813 0.746 8.608l-0.043-0.297 41.262 240.498-174.711 170.267c-9.209 8.985-14.92 21.519-14.92 35.386 0 24.785 18.244 45.308 42.035 48.874l0.272 0.033 241.449 35.084 107.938 218.8c8.254 16.45 24.989 27.543 44.316 27.543s36.062-11.093 44.186-27.259l0.129-0.284 108.009-218.8 241.449-35.084c24.063-3.599 42.307-24.123 42.307-48.907 0-13.867-5.711-26.401-14.91-35.376l-0.010-0.010-174.711-170.267 41.244-240.462c0.453-2.514 0.713-5.408 0.713-8.362 0-27.29-22.123-49.413-49.413-49.413-8.41 0-16.33 2.101-23.262 5.807l0.265-0.13-216 113.538-215.867-113.573c-6.697-3.608-14.656-5.73-23.11-5.733h-0.001zM511.911 253.947c0 0 0 0 0.001 0 8.41 0 16.329-2.102 23.26-5.809l-0.265 0.129 196.587-103.378-37.547 218.924c-0.452 2.511-0.711 5.401-0.711 8.351 0 13.871 5.717 26.407 14.923 35.381l0.010 0.010 159.031 155.031-219.787 31.938c-16.419 2.446-30.013 12.675-37.079 26.747l-0.129 0.284-98.293 199.164-98.293-199.164c-7.198-14.355-20.791-24.582-36.938-26.998l-0.271-0.033-219.796-31.938 159.040-155.031c9.217-8.98 14.935-21.513 14.935-35.382 0-2.954-0.259-5.847-0.757-8.658l0.044 0.297-37.547-218.924 196.56 103.378c6.664 3.578 14.581 5.68 22.988 5.68 0.012 0 0.024 0 0.036 0h-0.002z" />
<glyph unicode="&#xe915;" glyph-name="withdraw" d="M146.222 484.444h730.427c17.673 0.001 31.999 14.327 31.999 32 0 8.781-3.537 16.736-9.264 22.518l-153.029 154.593c-5.788 5.774-13.777 9.345-22.599 9.345-17.673 0-32-14.327-32-32 0-8.708 3.478-16.603 9.121-22.373l-0.006 0.006 99.076-100.089h-653.724c-17.673 0-32-14.327-32-32s14.327-32 32-32v0zM876.649 376.596h-730.427c-0.002 0-0.005 0-0.008 0-17.673 0-32-14.327-32-32 0-8.781 3.537-16.736 9.264-22.518l153.037-154.602c5.802-5.859 13.849-9.487 22.742-9.487 17.674 0 32.002 14.328 32.002 32.002 0 8.781-3.536 16.736-9.263 22.518l0.003-0.003-99.076 100.089h653.724c17.673 0 32 14.327 32 32s-14.327 32-32 32v0z" />
<glyph unicode="&#xe916;" glyph-name="down" d="M865.778 846.222h-707.44c-24.546 0-44.444-19.898-44.444-44.444v0-707.396c0-24.546 19.898-44.444 44.444-44.444v0h707.44c24.546 0 44.444 19.898 44.444 44.444v0 707.396c0 24.546-19.898 44.444-44.444 44.444v0zM686.818 339.164l-151.324-153.271c-5.789-5.862-13.819-9.499-22.698-9.52h-0.075c-0.005 0-0.011 0-0.016 0-8.852 0-16.865 3.595-22.659 9.404l-0.001 0.001-152.64 153.289c-6.055 5.831-9.815 14.007-9.815 23.062 0 17.673 14.327 32 32 32 9.099 0 17.311-3.797 23.137-9.894l0.011-0.012 97.324-97.707v401.316c0 17.673 14.327 32 32 32s32-14.327 32-32v0-402.16l97.209 98.453c5.815 5.946 13.919 9.632 22.884 9.632 17.673 0 32-14.327 32-32 0-8.819-3.568-16.805-9.338-22.593l0.001 0.001z" />
<glyph unicode="&#xe917;" glyph-name="up" d="M865.778 846.222h-707.44c-24.546 0-44.444-19.898-44.444-44.444v0-707.396c0-24.546 19.898-44.444 44.444-44.444v0h707.44c24.546 0 44.444 19.898 44.444 44.444v0 707.396c0 24.546-19.898 44.444-44.444 44.444v0zM686.622 511.884c-5.786-5.761-13.766-9.323-22.578-9.323-8.861 0-16.88 3.601-22.675 9.42l-97.308 97.708v-401.316c0-17.673-14.327-32-32-32s-32 14.327-32 32v0 402.16l-97.209-98.453c-5.815-5.946-13.919-9.632-22.884-9.632-17.673 0-32 14.327-32 32 0 8.819 3.568 16.805 9.338 22.593l-0.001-0.001 151.324 153.271c5.789 5.862 13.819 9.499 22.698 9.52h0.075c8.861 0 16.88-3.602 22.674-9.421l152.641-153.272c5.761-5.786 9.323-13.766 9.323-22.578 0-8.861-3.601-16.88-9.42-22.675l-0.001-0.001z" />
</font>
</defs>
</svg>
